<?xml version="1.0" encoding="UTF-8"?>
<svg width="48" height="48" viewBox="0 0 48 48" fill="none" xmlns="http://www.w3.org/2000/svg">
  <rect width="48" height="48" rx="8" fill="#1A171B"/>
  <path d="M38.8 14.8C38.8 19.7 34.8 23.7 29.9 23.7H25.3V32.6H32.9V29.3C32.9 28 33.9 27 35.2 27H38.8C38.8 33.8 33.1 39.5 26.3 39.5H16.6C9.8 39.5 4.1 33.8 4.1 27V14.7C4.1 13.4 5.1 12.4 6.4 12.4H10C10 18.1 14.7 22.8 20.4 22.8C25.7 22.8 30.1 19 30.9 14C32.8 14.7 34.5 15.9 35.8 17.4C37.1 18.9 38 21 38.3 23.1V14.8H38.8ZM20.4 16C18 16 16.1 14.1 16.1 11.7C16.1 9.3 18 7.4 20.4 7.4C22.8 7.4 24.7 9.3 24.7 11.7C24.7 14.1 22.8 16 20.4 16Z" fill="#FDB813"/>
</svg> 